<?xml version="1.0" encoding="utf-8"?>
<!-- Generator: Adobe Illustrator 25.2.1, SVG Export Plug-In . SVG Version: 6.00 Build 0)  -->
<svg version="1.1" id="Layer_1" xmlns="http://www.w3.org/2000/svg" xmlns:xlink="http://www.w3.org/1999/xlink" x="0px" y="0px"
	 viewBox="0 0 612 792" style="enable-background:new 0 0 612 792;" xml:space="preserve">
<g>
	<path d="M220.16,286.23l1.02,42.56c0.05,1.71,0.4,2.85,1.06,3.42c0.65,0.56,1.33,0.87,2.04,0.91l-0.49,1.35
		c-0.87-0.09-1.95-0.15-3.25-0.17c-1.3-0.02-2.6-0.03-3.91-0.03c-1.76,0-3.41,0.01-4.95,0.03s-2.8,0.08-3.78,0.17l0.49-1.35
		c2.33-0.09,3.94-0.48,4.83-1.18c0.89-0.7,1.3-2.2,1.23-4.5l-0.35-33.63l1.4-0.88l-22.9,30.58c-1.38,1.81-2.36,3.33-2.95,4.57
		c-0.59,1.24-0.82,2.22-0.7,2.94c0.12,0.72,0.59,1.24,1.4,1.56c0.81,0.32,1.9,0.5,3.29,0.54l-0.49,1.35
		c-1.23-0.09-2.53-0.15-3.9-0.17c-1.37-0.02-2.64-0.03-3.81-0.03c-1.13,0-2.09,0.01-2.89,0.03c-0.8,0.02-1.55,0.08-2.26,0.17
		l0.49-1.35c0.98-0.22,2.1-0.75,3.35-1.59c1.25-0.83,2.63-2.27,4.13-4.3l30.82-41c0.18,0,0.36,0,0.54,0
		C219.79,286.23,219.98,286.23,220.16,286.23z M217.94,314.98l-0.49,1.35h-20.16l1.17-1.35H217.94z"/>
	<path d="M242.29,286.57c0.93,0.04,2.15,0.09,3.67,0.13c1.52,0.05,3.02,0.07,4.51,0.07c2.12,0,4.16-0.02,6.11-0.07
		c1.95-0.04,3.34-0.07,4.15-0.07c3.65,0,6.5,0.52,8.53,1.56c2.03,1.04,3.33,2.45,3.87,4.23c0.55,1.78,0.42,3.78-0.39,5.99
		c-0.49,1.35-1.29,2.8-2.39,4.33c-1.1,1.53-2.56,2.98-4.38,4.33c-1.82,1.35-4.04,2.47-6.67,3.35c-2.62,0.88-5.69,1.32-9.21,1.32
		h-6.5l0.49-1.35h5.82c3.2,0,5.83-0.51,7.9-1.52c2.06-1.01,3.7-2.37,4.93-4.06c1.23-1.69,2.21-3.57,2.97-5.65
		c1.3-3.56,1.46-6.33,0.48-8.29c-0.98-1.96-3.52-2.94-7.62-2.94c-2.08,0-3.57,0.38-4.48,1.15c-0.91,0.77-1.79,2.32-2.65,4.67
		l-12.21,33.56c-0.59,1.62-0.9,2.84-0.92,3.65c-0.03,0.81,0.31,1.35,1,1.62c0.69,0.27,1.79,0.45,3.29,0.54l-0.49,1.35
		c-1.01-0.09-2.28-0.15-3.83-0.17c-1.55-0.02-3.11-0.03-4.69-0.03c-1.76,0-3.41,0.01-4.95,0.03s-2.8,0.08-3.78,0.17l0.49-1.35
		c1.56-0.09,2.79-0.27,3.68-0.54c0.89-0.27,1.61-0.81,2.18-1.62c0.57-0.81,1.15-2.03,1.74-3.65l12.21-33.56
		c0.61-1.67,0.92-2.9,0.94-3.69c0.02-0.79-0.32-1.33-1-1.62c-0.68-0.29-1.78-0.46-3.3-0.51L242.29,286.57z M244.31,310.59
		c2.4,0.09,4.28,0.19,5.64,0.3c1.36,0.11,2.46,0.21,3.31,0.3c0.85,0.09,1.65,0.2,2.41,0.34c2.84,0.5,4.69,1.41,5.53,2.74
		c0.85,1.33,1.08,3.39,0.69,6.19l-0.82,6.9c-0.27,1.98-0.33,3.42-0.18,4.3c0.15,0.88,0.73,1.3,1.74,1.25
		c0.78-0.04,1.52-0.29,2.2-0.74c0.68-0.45,1.46-1.06,2.32-1.83l0.74,0.74c-1.46,1.4-2.83,2.47-4.11,3.21
		c-1.29,0.74-2.85,1.12-4.7,1.12c-1.67,0-2.96-0.5-3.86-1.49c-0.9-0.99-1.14-2.93-0.72-5.82l0.97-6.77c0.3-1.94,0.45-3.62,0.45-5.04
		c0-1.42-0.32-2.54-0.95-3.35c-0.63-0.81-1.85-1.22-3.65-1.22h-7.31L244.31,310.59z"/>
	<path d="M305.27,286.23l1.02,42.56c0.05,1.71,0.4,2.85,1.06,3.42c0.65,0.56,1.33,0.87,2.04,0.91l-0.49,1.35
		c-0.87-0.09-1.95-0.15-3.25-0.17c-1.3-0.02-2.6-0.03-3.91-0.03c-1.76,0-3.41,0.01-4.95,0.03s-2.8,0.08-3.78,0.17l0.49-1.35
		c2.33-0.09,3.94-0.48,4.83-1.18c0.89-0.7,1.3-2.2,1.23-4.5l-0.35-33.63l1.4-0.88l-22.9,30.58c-1.38,1.81-2.36,3.33-2.95,4.57
		c-0.59,1.24-0.82,2.22-0.7,2.94c0.12,0.72,0.59,1.24,1.4,1.56c0.81,0.32,1.9,0.5,3.29,0.54l-0.49,1.35
		c-1.23-0.09-2.53-0.15-3.9-0.17c-1.37-0.02-2.64-0.03-3.81-0.03c-1.13,0-2.09,0.01-2.89,0.03c-0.8,0.02-1.55,0.08-2.26,0.17
		l0.49-1.35c0.98-0.22,2.1-0.75,3.35-1.59c1.25-0.83,2.63-2.27,4.13-4.3l30.82-41c0.18,0,0.36,0,0.54,0
		C304.91,286.23,305.09,286.23,305.27,286.23z M303.06,314.98l-0.49,1.35H282.4l1.17-1.35H303.06z"/>
	<path d="M344.66,286.57l-0.49,1.35c-1.55,0.05-2.77,0.21-3.67,0.51c-0.9,0.29-1.62,0.83-2.18,1.62c-0.56,0.79-1.14,2.02-1.75,3.69
		l-12.21,33.56c-0.59,1.62-0.9,2.84-0.92,3.65c-0.03,0.81,0.31,1.35,1,1.62c0.69,0.27,1.79,0.45,3.29,0.54l-0.49,1.35
		c-1.01-0.09-2.28-0.15-3.83-0.17c-1.55-0.02-3.11-0.03-4.69-0.03c-1.76,0-3.41,0.01-4.95,0.03c-1.54,0.02-2.8,0.08-3.78,0.17
		l0.49-1.35c1.56-0.09,2.79-0.27,3.68-0.54c0.89-0.27,1.61-0.81,2.18-1.62c0.57-0.81,1.15-2.03,1.74-3.65l12.21-33.56
		c0.61-1.67,0.92-2.9,0.94-3.69c0.02-0.79-0.32-1.33-1-1.62c-0.68-0.29-1.78-0.46-3.3-0.51l0.49-1.35c0.93,0.04,2.15,0.09,3.67,0.13
		c1.52,0.05,3.16,0.07,4.91,0.07c1.58,0,3.15-0.02,4.73-0.07C342.29,286.66,343.6,286.61,344.66,286.57z"/>
	<path d="M361.3,313.9l-4.88,13.4c-0.59,1.62-0.9,2.84-0.92,3.65c-0.03,0.81,0.31,1.35,1,1.62c0.69,0.27,1.79,0.45,3.29,0.54
		l-0.49,1.35c-1.01-0.09-2.28-0.15-3.83-0.17c-1.55-0.02-3.11-0.03-4.69-0.03c-1.76,0-3.41,0.01-4.95,0.03
		c-1.54,0.02-2.8,0.08-3.78,0.17l0.49-1.35c1.57-0.09,2.79-0.27,3.68-0.54c0.89-0.27,1.61-0.81,2.18-1.62
		c0.57-0.81,1.15-2.03,1.74-3.65l5.05-13.87l2.13,4.19L361.3,313.9z M387.28,286.57l-0.49,1.35c-0.92,0.18-1.98,0.73-3.17,1.66
		c-1.19,0.92-2.67,2.38-4.43,4.36l-23.52,27.06h-1.15l-5.19-29.23c-0.29-1.67-0.67-2.72-1.12-3.15c-0.45-0.43-0.93-0.64-1.42-0.64
		l0.52-1.42c0.89,0.04,1.8,0.09,2.76,0.13c0.95,0.05,1.99,0.07,3.12,0.07c1.49,0,3.08-0.01,4.78-0.03c1.7-0.02,3.29-0.08,4.76-0.17
		l-0.52,1.42c-1.13,0-2.17,0.13-3.12,0.41c-0.96,0.27-1.7,0.77-2.23,1.49c-0.53,0.72-0.7,1.74-0.5,3.04l3.46,21.92l-0.69,0.41
		l15.52-17.93c2.17-2.48,3.48-4.4,3.95-5.75c0.47-1.35,0.28-2.29-0.57-2.81c-0.85-0.52-2.21-0.8-4.09-0.85l0.49-1.35
		c1.29,0.04,2.61,0.09,3.94,0.13c1.34,0.05,2.59,0.07,3.76,0.07s2.15-0.02,2.94-0.07C385.85,286.66,386.59,286.61,387.28,286.57z"/>
	<path d="M406.15,286.23l1.02,42.56c0.05,1.71,0.4,2.85,1.06,3.42c0.65,0.56,1.33,0.87,2.04,0.91l-0.49,1.35
		c-0.87-0.09-1.95-0.15-3.25-0.17s-2.6-0.03-3.91-0.03c-1.76,0-3.41,0.01-4.95,0.03c-1.54,0.02-2.8,0.08-3.78,0.17l0.49-1.35
		c2.33-0.09,3.94-0.48,4.83-1.18c0.89-0.7,1.3-2.2,1.23-4.5l-0.35-33.63l1.4-0.88l-22.9,30.58c-1.38,1.81-2.36,3.33-2.95,4.57
		c-0.59,1.24-0.82,2.22-0.7,2.94c0.12,0.72,0.58,1.24,1.4,1.56c0.81,0.32,1.9,0.5,3.29,0.54l-0.49,1.35
		c-1.23-0.09-2.53-0.15-3.9-0.17c-1.37-0.02-2.64-0.03-3.81-0.03c-1.13,0-2.09,0.01-2.89,0.03c-0.8,0.02-1.55,0.08-2.26,0.17
		l0.49-1.35c0.98-0.22,2.1-0.75,3.35-1.59c1.25-0.83,2.63-2.27,4.13-4.3l30.82-41c0.18,0,0.36,0,0.54,0
		C405.78,286.23,405.96,286.23,406.15,286.23z M403.93,314.98l-0.49,1.35h-20.16l1.17-1.35H403.93z"/>
</g>
</svg>
